<svg xmlns="http://www.w3.org/2000/svg" width="24" height="24" viewBox="0 0 24 24">
  <path fill="#2196F3" fill-rule="evenodd" d="M12,24 C5.372583,24 0,18.627417 0,12 C0,5.372583 5.372583,0 12,0 C18.627417,0 24,5.372583 24,12 C24,18.627417 18.627417,24 12,24 Z M12,12 C14.209139,12 16,10.209139 16,8 C16,5.790861 14.209139,4 12,4 C9.790861,4 8,5.790861 8,8 C8,10.209139 9.790861,12 12,12 Z M12,14 C9.05595593,14 6.4704165,15.5954879 5,18 C6.4704165,20.4045121 9.05595593,22 12,22 C14.9440441,22 17.5295835,20.4045121 19,18 C17.5295835,15.5954879 14.9440441,14 12,14 Z"/>
</svg>
