<svg xmlns="http://www.w3.org/2000/svg" width="24" height="24" viewBox="0 0 24 24">
  <g fill="none" fill-rule="evenodd">
    <rect width="24" height="24"/>
    <rect width="4" height="6" x="15" y="11" fill="#2196F3"/>
    <rect width="4" height="11" x="10" y="6" fill="#2196F3"/>
    <rect width="4" height="8" x="5" y="9" fill="#2196F3"/>
    <path fill="#2196F3" fill-rule="nonzero" d="M12,22 C17.5228475,22 22,17.5228475 22,12 C22,6.4771525 17.5228475,2 12,2 C6.4771525,2 2,6.4771525 2,12 C2,17.5228475 6.4771525,22 12,22 Z M12,24 C5.372583,24 0,18.627417 0,12 C0,5.372583 5.372583,0 12,0 C18.627417,0 24,5.372583 24,12 C24,18.627417 18.627417,24 12,24 Z"/>
    <rect width="5" height="2" x="18.975" y="20.475" fill="#2196F3" rx="1" transform="rotate(45 21.475 21.475)"/>
  </g>
</svg>
