<svg xmlns="http://www.w3.org/2000/svg" width="24" height="24" viewBox="0 0 24 24">
  <g fill="#C7C7CC" fill-rule="evenodd">
    <path fill-rule="nonzero" d="M12,23 C18.0751322,23 23,18.0751322 23,12 C23,5.92486775 18.0751322,1 12,1 C5.92486775,1 1,5.92486775 1,12 C1,18.0751322 5.92486775,23 12,23 Z M12,24 C5.372583,24 0,18.627417 0,12 C0,5.372583 5.372583,0 12,0 C18.627417,0 24,5.372583 24,12 C24,18.627417 18.627417,24 12,24 Z"/>
    <circle cx="12" cy="8" r="4"/>
    <path d="M12,14 C14.9440441,14 17.5295835,15.5954879 19,18 C17.5295835,20.4045121 14.9440441,22 12,22 C9.05595593,22 6.4704165,20.4045121 5,18 C6.4704165,15.5954879 9.05595593,14 12,14 Z"/>
  </g>
</svg>
