<svg xmlns="http://www.w3.org/2000/svg" width="259" height="26" viewBox="0 0 259 26">
  <g fill="none" fill-rule="evenodd" transform="translate(-4 -9)">
    <path fill="#2E578C" d="M82.304,31.588 C83.7920074,31.588 85.1179942,31.3600023 86.282,30.904 C87.4460058,30.4479977 88.4359959,29.7940043 89.252,28.942 C90.0680041,28.0899957 90.6859979,27.0700059 91.106,25.882 C91.5260021,24.6939941 91.736,23.3680073 91.736,21.904 C91.736,20.103991 91.4600028,18.5740063 90.908,17.314 C90.3559972,16.0539937 89.6300045,15.028004 88.73,14.236 C87.8299955,13.443996 86.8160056,12.8620019 85.688,12.49 C84.5599944,12.1179981 83.4200058,11.932 82.268,11.932 L78.236,11.932 L78.236,31.588 L82.304,31.588 Z M75.608,34 L75.608,9.52 L82.124,9.52 C83.8760088,9.52 85.5079924,9.81399706 87.02,10.402 C88.5320076,10.9900029 89.8399945,11.8239946 90.944,12.904 C92.0480055,13.9840054 92.9119969,15.2919923 93.536,16.828 C94.1600031,18.3640077 94.472,20.0799905 94.472,21.976 C94.472,23.8240092 94.1660031,25.4919926 93.554,26.98 C92.9419969,28.4680074 92.0960054,29.7339948 91.016,30.778 C89.9359946,31.8220052 88.6400076,32.6199972 87.128,33.172 C85.6159924,33.7240028 83.960009,34 82.16,34 L75.608,34 Z M111.453412,29.824 L103.173412,29.824 L101.229412,34.18 L98.6734118,33.82 L107.097412,15.82 L107.529412,15.82 L116.025412,33.82 L113.433412,34.18 L111.453412,29.824 Z M104.217412,27.484 L110.373412,27.484 L107.349412,20.824 L107.241412,20.824 L104.217412,27.484 Z M121.234824,30.04 C121.954827,30.6160029 122.776819,31.0839982 123.700824,31.444 C124.624828,31.8040018 125.674818,31.984 126.850824,31.984 C127.618827,31.984 128.272821,31.9060008 128.812824,31.75 C129.352826,31.5939992 129.790822,31.3900013 130.126824,31.138 C130.462825,30.8859987 130.708823,30.5980016 130.864824,30.274 C131.020824,29.9499984 131.098824,29.6080018 131.098824,29.248 C131.098824,28.8639981 131.008824,28.5220015 130.828824,28.222 C130.648823,27.9219985 130.372825,27.6340014 130.000824,27.358 C129.628822,27.0819986 129.160826,26.8120013 128.596824,26.548 C128.032821,26.2839987 127.366827,25.9840017 126.598824,25.648 C125.542818,25.1919977 124.660827,24.7720019 123.952824,24.388 C123.24482,24.0039981 122.674826,23.614002 122.242824,23.218 C121.810821,22.821998 121.498825,22.3960023 121.306824,21.94 C121.114823,21.4839977 121.018824,20.9680029 121.018824,20.392 C121.018824,19.8159971 121.150822,19.2400029 121.414824,18.664 C121.678825,18.0879971 122.068821,17.5780022 122.584824,17.134 C123.100826,16.6899978 123.74282,16.3300014 124.510824,16.054 C125.278827,15.7779986 126.178818,15.64 127.210824,15.64 C128.626831,15.64 129.838819,15.843998 130.846824,16.252 C131.854829,16.660002 132.67082,17.1159975 133.294824,17.62 L132.394824,19.708 C131.65082,19.1559972 130.852828,18.7360014 130.000824,18.448 C129.148819,18.1599986 128.230829,18.016 127.246824,18.016 C126.094818,18.016 125.194827,18.2379978 124.546824,18.682 C123.89882,19.1260022 123.574824,19.6359971 123.574824,20.212 C123.574824,20.5480017 123.652823,20.8419987 123.808824,21.094 C123.964824,21.3460013 124.222822,21.6039987 124.582824,21.868 C124.942825,22.1320013 125.428821,22.4079986 126.040824,22.696 C126.652827,22.9840014 127.414819,23.3079982 128.326824,23.668 C129.358829,24.1000022 130.22282,24.5259979 130.918824,24.946 C131.614827,25.3660021 132.172821,25.8039977 132.592824,26.26 C133.012826,26.7160023 133.312823,27.2079974 133.492824,27.736 C133.672824,28.2640026 133.762824,28.827997 133.762824,29.428 C133.762824,30.9640077 133.15083,32.1699956 131.926824,33.046 C130.702817,33.9220044 128.998835,34.36 126.814824,34.36 C125.326816,34.36 123.98883,34.1380022 122.800824,33.694 C121.612818,33.2499978 120.754826,32.7520028 120.226824,32.2 L121.234824,30.04 Z M155.388235,34 L152.868235,34 L152.868235,25.972 L143.148235,25.972 L143.148235,34 L140.628235,34 L140.628235,16 L143.148235,16 L143.148235,23.668 L152.868235,23.668 L152.868235,16 L155.388235,16 L155.388235,34 Z M172.261647,24.712 C173.365653,24.904001 174.259644,25.395996 174.943647,26.188 C175.627651,26.980004 175.969647,27.9159946 175.969647,28.996 C175.969647,30.5800079 175.405653,31.8099956 174.277647,32.686 C173.149642,33.5620044 171.589657,34 169.597647,34 L163.117647,34 L163.117647,16 L169.021647,16 C170.101653,16 171.007644,16.1379986 171.739647,16.414 C172.471651,16.6900014 173.071645,17.0499978 173.539647,17.494 C174.00765,17.9380022 174.343646,18.4359972 174.547647,18.988 C174.751648,19.5400028 174.853647,20.1039971 174.853647,20.68 C174.853647,21.4960041 174.649649,22.2519965 174.241647,22.948 C173.833645,23.6440035 173.173652,24.1839981 172.261647,24.568 L172.261647,24.712 Z M165.637647,25.936 L165.637647,31.696 L169.921647,31.696 C170.905652,31.696 171.715644,31.4680023 172.351647,31.012 C172.98765,30.5559977 173.305647,29.8360049 173.305647,28.852 C173.305647,27.8919952 172.963651,27.1660025 172.279647,26.674 C171.595644,26.1819975 170.749652,25.936 169.741647,25.936 L165.637647,25.936 Z M172.189647,20.968 C172.189647,20.4639975 172.105648,20.0380017 171.937647,19.69 C171.769646,19.3419983 171.541649,19.066001 171.253647,18.862 C170.965646,18.657999 170.635649,18.5140004 170.263647,18.43 C169.891645,18.3459996 169.501649,18.304 169.093647,18.304 L165.637647,18.304 L165.637647,23.704 L169.273647,23.704 C171.217657,23.704 172.189647,22.7920091 172.189647,20.968 Z M199.935059,25.216 C199.935059,26.4400061 199.701061,27.6039945 199.233059,28.708 C198.765057,29.8120055 198.111063,30.7839958 197.271059,31.624 C196.431055,32.4640042 195.435065,33.1299975 194.283059,33.622 C193.131053,34.1140025 191.871066,34.36 190.503059,34.36 C189.135052,34.36 187.875065,34.1260023 186.723059,33.658 C185.571053,33.1899977 184.569063,32.5420041 183.717059,31.714 C182.865055,30.8859959 182.199061,29.9200055 181.719059,28.816 C181.239057,27.7119945 180.999059,26.5120065 180.999059,25.216 C180.999059,23.7759928 181.257056,22.4620059 181.773059,21.274 C182.289062,20.0859941 182.985055,19.0780041 183.861059,18.25 C184.737063,17.4219959 185.745053,16.7800023 186.885059,16.324 C188.025065,15.8679977 189.231053,15.64 190.503059,15.64 C191.727065,15.64 192.909053,15.8619978 194.049059,16.306 C195.189065,16.7500022 196.191055,17.3859959 197.055059,18.214 C197.919063,19.0420041 198.615056,20.0499941 199.143059,21.238 C199.671062,22.4260059 199.935059,23.7519927 199.935059,25.216 Z M197.271059,25.144 C197.271059,24.0879947 197.091061,23.1220044 196.731059,22.246 C196.371057,21.3699956 195.885062,20.6200031 195.273059,19.996 C194.661056,19.3719969 193.941063,18.8860017 193.113059,18.538 C192.285055,18.1899983 191.403064,18.016 190.467059,18.016 C189.555054,18.016 188.691063,18.1779984 187.875059,18.502 C187.059055,18.8260016 186.339062,19.2939969 185.715059,19.906 C185.091056,20.5180031 184.593061,21.2619956 184.221059,22.138 C183.849057,23.0140044 183.663059,24.0159944 183.663059,25.144 C183.663059,26.0560046 183.813057,26.9199959 184.113059,27.736 C184.41306,28.5520041 184.857056,29.2779968 185.445059,29.914 C186.033062,30.5500032 186.759055,31.0539981 187.623059,31.426 C188.487063,31.7980019 189.471053,31.984 190.575059,31.984 C191.583064,31.984 192.501055,31.7980019 193.329059,31.426 C194.157063,31.0539981 194.865056,30.5500032 195.453059,29.914 C196.041062,29.2779968 196.491057,28.5520041 196.803059,27.736 C197.115061,26.9199959 197.271059,26.0560046 197.271059,25.144 Z M216.700471,29.824 L208.420471,29.824 L206.476471,34.18 L203.920471,33.82 L212.344471,15.82 L212.776471,15.82 L221.272471,33.82 L218.680471,34.18 L216.700471,29.824 Z M209.464471,27.484 L215.620471,27.484 L212.596471,20.824 L212.488471,20.824 L209.464471,27.484 Z M241.205883,33.316 L241.205883,33.712 L238.829883,34.216 L232.457883,26.944 L229.505883,26.944 L229.505883,34 L226.985883,34 L226.985883,16 L233.537883,16 C234.449887,16 235.289879,16.1319987 236.057883,16.396 C236.825886,16.6600013 237.47988,17.0259977 238.019883,17.494 C238.559885,17.9620023 238.979881,18.5259967 239.279883,19.186 C239.579884,19.8460033 239.729883,20.571996 239.729883,21.364 C239.729883,22.7080067 239.339886,23.8479953 238.559883,24.784 C237.779879,25.7200047 236.68189,26.3439984 235.265883,26.656 L241.205883,33.316 Z M237.065883,21.328 C237.065883,20.2959948 236.723886,19.5340025 236.039883,19.042 C235.355879,18.5499975 234.473888,18.304 233.393883,18.304 L229.505883,18.304 L229.505883,24.64 L233.321883,24.64 C234.473888,24.64 235.385879,24.3640028 236.057883,23.812 C236.729886,23.2599972 237.065883,22.4320055 237.065883,21.328 Z M253.759294,31.696 C254.647299,31.696 255.48729,31.5460015 256.279294,31.246 C257.071298,30.9459985 257.755291,30.5080029 258.331294,29.932 C258.907297,29.3559971 259.363293,28.6480042 259.699294,27.808 C260.035296,26.9679958 260.203294,26.0200053 260.203294,24.964 C260.203294,23.955995 260.011296,23.0440041 259.627294,22.228 C259.243292,21.4119959 258.745297,20.7160029 258.133294,20.14 C257.521291,19.5639971 256.831298,19.1140016 256.063294,18.79 C255.295291,18.4659984 254.527298,18.304 253.759294,18.304 L250.195294,18.304 L250.195294,31.696 L253.759294,31.696 Z M247.675294,34 L247.675294,16 L253.759294,16 C254.8633,16 255.961289,16.2159978 257.053294,16.648 C258.1453,17.0800022 259.12329,17.6859961 259.987294,18.466 C260.851299,19.2460039 261.547292,20.1759946 262.075294,21.256 C262.603297,22.3360054 262.867294,23.5359934 262.867294,24.856 C262.867294,26.3440074 262.627297,27.6519944 262.147294,28.78 C261.667292,29.9080056 261.013298,30.8619961 260.185294,31.642 C259.35729,32.4220039 258.3973,33.009998 257.305294,33.406 C256.213289,33.802002 255.043301,34 253.795294,34 L247.675294,34 Z"/>
    <path fill="#2196F3" d="M14.544,20.968 C16.0800077,21.3040017 17.3219953,22.0179945 18.27,23.11 C19.2180047,24.2020055 19.692,25.551992 19.692,27.16 C19.692,29.368011 18.9540074,31.0599941 17.478,32.236 C16.0019926,33.4120059 13.9920127,34 11.448,34 L4.608,34 L4.608,9.52 L11.088,9.52 C12.3360062,9.52 13.4219954,9.67599844 14.346,9.988 C15.2700046,10.3000016 16.031997,10.7259973 16.632,11.266 C17.232003,11.8060027 17.6759986,12.4479963 17.964,13.192 C18.2520014,13.9360037 18.396,14.7279958 18.396,15.568 C18.396,16.1200028 18.3060009,16.6719972 18.126,17.224 C17.9459991,17.7760028 17.6880017,18.2919976 17.352,18.772 C17.0159983,19.2520024 16.6140023,19.6779981 16.146,20.05 C15.6779977,20.4220019 15.144003,20.6919992 14.544,20.86 L14.544,20.968 Z M7.236,22.444 L7.236,31.588 L11.7,31.588 C12.2760029,31.588 12.8759969,31.5280006 13.5,31.408 C14.1240031,31.2879994 14.6939974,31.0660016 15.21,30.742 C15.7260026,30.4179984 16.1459984,29.9740028 16.47,29.41 C16.7940016,28.8459972 16.956,28.1080046 16.956,27.196 C16.956,26.403996 16.8000016,25.708003 16.488,25.108 C16.1759984,24.507997 15.7620026,24.010002 15.246,23.614 C14.7299974,23.217998 14.1360034,22.924001 13.464,22.732 C12.7919966,22.539999 12.0960036,22.444 11.376,22.444 L7.236,22.444 Z M15.66,15.856 C15.66,14.5599935 15.2340043,13.5820033 14.382,12.922 C13.5299957,12.2619967 12.3480076,11.932 10.836,11.932 L7.236,11.932 L7.236,20.068 L11.448,20.068 C12.0000028,20.068 12.5279975,19.9780009 13.032,19.798 C13.5360025,19.6179991 13.985998,19.3540017 14.382,19.006 C14.778002,18.6579983 15.0899989,18.2200026 15.318,17.692 C15.5460011,17.1639974 15.66,16.5520035 15.66,15.856 Z M29.3294118,31.696 L37.8614118,31.696 L37.8614118,34 L26.8094118,34 L26.8094118,16 L29.3294118,16 L29.3294118,31.696 Z M58.2988236,26.26 C58.2988236,27.3160053 58.1488251,28.3299951 57.8488236,29.302 C57.5488221,30.2740049 57.0868267,31.1319963 56.4628236,31.876 C55.8388205,32.6200037 55.0408284,33.2199977 54.0688236,33.676 C53.0968187,34.1320023 51.9268304,34.36 50.5588236,34.36 C49.046816,34.36 47.7928286,34.1320023 46.7968236,33.676 C45.8008186,33.2199977 45.0088265,32.6140038 44.4208236,31.858 C43.8328206,31.1019962 43.4188248,30.2500047 43.1788236,29.302 C42.9388224,28.3539953 42.8188236,27.376005 42.8188236,26.368 L42.8188236,16 L45.3388236,16 L45.3388236,25.864 C45.3388236,26.9920056 45.4648223,27.9399962 45.7168236,28.708 C45.9688248,29.4760038 46.3228213,30.1059975 46.7788236,30.598 C47.2348259,31.0900025 47.7868203,31.4439989 48.4348236,31.66 C49.0828268,31.8760011 49.7908197,31.984 50.5588236,31.984 C51.3028273,31.984 51.9928204,31.8700011 52.6288236,31.642 C53.2648268,31.4139989 53.8168212,31.0600024 54.2848236,30.58 C54.7528259,30.0999976 55.1188223,29.4700039 55.3828236,28.69 C55.6468249,27.9099961 55.7788236,26.9680055 55.7788236,25.864 L55.7788236,16 L58.2988236,16 L58.2988236,26.26 Z"/>
  </g>
</svg>
